# xmcd
#
# Track frame offsets:
#   150
#   22303
#   43232
#   62192
#   80217
#   100728
#   123814
#   137356
#   155030
#   174150
#   192338
#   205951
#   228045
#   249285
#   264083
#   282776
#   296362
#   311715
#   326570
#
# Disc length: 4400 seconds
#
# Revision: 0
# Processed by: cddbd v1.5.2PL0 Copyright (c) Steve Scherf et al.
# Submitted via: GXTranscoder 2.0.1939
#
DISCID=0a112e13
DTITLE=Mey Wader Wecker - Das Konzert
DYEAR=1900
DGENRE=UnClassifiable
TTITLE0=Gut, wieder hier zu sein
TTITLE1=Damals
TTITLE2=Kleine Stadt 
TTITLE3=Komm giess mein Glas noch einmal ein
TTITLE4=Freundliche Gesichter
TTITLE5=Recontree Begegnung
TTITLE6=Rosen im Dezember
TTITLE7=Vaters Land
TTITLE8=Wünsche
TTITLE9=Was passierte in den Jahren
TTITLE10=Ich wollte wie Orpheus singen
TTITLE11=51er Kapitän
TTITLE12=Lass Liebe auf uns regnen 
TTITLE13=Sage Nein!
TTITLE14=Bella ciao
TTITLE15=So trolln wir uns 
TTITLE16=Gute Nacht Freunde
TTITLE17=Wer weiss
TTITLE18=xxxx
EXTD=
EXTT0=
EXTT1=
EXTT2=
EXTT3=
EXTT4=
EXTT5=
EXTT6=
EXTT7=
EXTT8=
EXTT9=
EXTT10=
EXTT11=
EXTT12=
EXTT13=
EXTT14=
EXTT15=
EXTT16=
EXTT17=
EXTT18=
PLAYORDER=
